USFL
nRows=231
nColumns=2
inDegrees=yes
endheader
time	tib_ant_r	
2.79435	 81.863324	
2.82762	 81.878331	
2.86089	 81.874884	
2.89415	 81.863361	
2.92742	 81.846965	
2.96069	 81.847939	
2.99395	 81.842156	
3.02722	 81.848367	
3.06048	 81.839560	
3.09375	 81.844800	
3.12702	 81.837203	
3.16028	 81.878043	
3.19355	 81.876332	
3.22681	 81.866637	
3.26008	 81.852229	
3.29335	 81.863471	
3.32661	 81.846564	
3.35988	 81.837577	
3.39315	 81.856765	
3.42641	 81.839567	
3.45968	 81.828214	
3.49294	 81.816660	
3.52621	 81.810529	
3.55948	 81.807928	
3.59274	 81.811127	
3.62601	 81.814001	
3.65927	 81.825067	
3.69254	 81.817481	
3.72581	 81.822726	
3.75907	 81.828988	
3.79234	 81.792342	
3.8256	 81.803003	
3.85887	 81.780726	
3.89214	 81.783496	
3.9254	 81.806980	
3.95867	 81.811495	
3.99194	 81.813731	
4.0252	 81.796303	
4.05847	 81.788133	
4.09173	 81.785182	
4.125	 81.804125	
4.15827	 81.789629	
4.19153	 81.786914	
4.2248	 81.805804	
4.25806	 81.798321	
4.29133	 81.789118	
4.3246	 81.815334	
4.35786	 81.821489	
4.39113	 81.812993	
4.4244	 81.874835	
4.45766	 81.913035	
4.49093	 82.038727	
4.52419	 81.840431	
4.55746	 81.618407	
4.59073	 81.400393	
4.62399	 81.367882	
4.65726	 81.310457	
4.69052	 81.129352	
4.72379	 81.048058	
4.75706	 81.075120	
4.79032	 80.832651	
4.82359	 80.986439	
4.85685	 80.943306	
4.89012	 80.983344	
4.92339	 80.916514	
4.95665	 80.594129	
4.98992	 80.547033	
5.02319	 80.569823	
5.05645	 80.260521	
5.08972	 80.203401	
5.12298	 79.877545	
5.15625	 79.501778	
5.18952	 79.514719	
5.22278	 79.093822	
5.25605	 78.835167	
5.28931	 78.676074	
5.32258	 77.815355	
5.35585	 78.112121	
5.38911	 77.795530	
5.42238	 77.510121	
5.45565	 77.387777	
5.48891	 77.143204	
5.52218	 76.809304	
5.55544	 76.709767	
5.58871	 76.364649	
5.62198	 76.144146	
5.65524	 75.801387	
5.68851	 75.409137	
5.72177	 75.073806	
5.75504	 74.939574	
5.78831	 74.856314	
5.82157	 74.848508	
5.85484	 74.872983	
5.8881	 74.681658	
5.92137	 74.714662	
5.95464	 74.637215	
5.9879	 74.521987	
6.02117	 74.464499	
6.05444	 74.482511	
6.0877	 74.222402	
6.12097	 74.141601	
6.15423	 74.003924	
6.1875	 73.999662	
6.22077	 74.223454	
6.25403	 74.189938	
6.2873	 74.131021	
6.32056	 74.146363	
6.35383	 74.068587	
6.3871	 74.156898	
6.42036	 74.008280	
6.45363	 73.871557	
6.4869	 73.999009	
6.52016	 73.820900	
6.55343	 73.741923	
6.58669	 73.618444	
6.61996	 73.374888	
6.65323	 73.269327	
6.68649	 73.048605	
6.71976	 72.906631	
6.75302	 73.150310	
6.78629	 73.285701	
6.81956	 73.462517	
6.85282	 73.606851	
6.88609	 73.511029	
6.91935	 73.433846	
6.95262	 73.410124	
6.98589	 73.529231	
7.01915	 73.531678	
7.05242	 73.508044	
7.08569	 73.611592	
7.11895	 73.532086	
7.15222	 73.610505	
7.18548	 73.496277	
7.21875	 73.489078	
7.25202	 73.642212	
7.28528	 73.455140	
7.31855	 73.562412	
7.35181	 73.652119	
7.38508	 73.557488	
7.41835	 73.745875	
7.45161	 73.649346	
7.48488	 73.636053	
7.51815	 73.682984	
7.55141	 73.725500	
7.58468	 73.773724	
7.61794	 73.810438	
7.65121	 73.941664	
7.68448	 74.029966	
7.71774	 73.931979	
7.75101	 73.917887	
7.78427	 73.901060	
7.81754	 73.833564	
7.85081	 73.854494	
7.88407	 73.975948	
7.91734	 74.036326	
7.9506	 74.093798	
7.98387	 74.107264	
8.01714	 74.120938	
8.0504	 74.120226	
8.08367	 74.099236	
8.11694	 74.062520	
8.1502	 74.027459	
8.18347	 74.183394	
8.21673	 74.158035	
8.25	 74.261860	
8.28327	 74.279080	
8.31653	 74.282312	
8.3498	 74.298433	
8.38306	 74.269464	
8.41633	 74.274133	
8.4496	 74.270027	
8.48286	 74.215812	
8.51613	 74.175623	
8.5494	 74.223396	
8.58266	 74.212471	
8.61593	 74.240252	
8.64919	 74.175514	
8.68246	 74.156863	
8.71573	 74.329115	
8.74899	 74.334452	
8.78226	 74.348757	
8.81552	 74.348635	
8.84879	 74.291507	
8.88206	 74.275842	
8.91532	 74.473787	
8.94859	 74.479269	
8.98185	 74.519800	
9.01512	 74.434725	
9.04839	 74.386828	
9.08165	 74.293273	
9.11492	 74.281080	
9.14819	 74.247752	
9.18145	 74.312183	
9.21472	 74.371796	
9.24798	 74.398853	
9.28125	 74.458245	
9.31452	 74.402553	
9.34778	 74.363249	
9.38105	 74.446261	
9.41431	 74.482719	
9.44758	 74.624282	
9.48085	 74.667165	
9.51411	 74.663286	
9.54738	 74.717919	
9.58065	 74.716212	
9.61391	 74.729921	
9.64718	 75.115646	
9.68044	 75.082840	
9.71371	 75.116247	
9.74698	 75.117912	
9.78024	 75.123687	
9.81351	 75.404416	
9.84677	 75.457878	
9.88004	 75.428260	
9.91331	 75.654146	
9.94657	 76.007467	
9.97984	 75.814279	
10.0131	 75.747223	
10.0464	 75.720430	
10.0796	 75.423633	
10.1129	 75.160758	
10.1462	 75.150115	
10.1794	 75.327522	
10.2127	 75.684604	
10.246	 75.763242	
10.2792	 75.924891	
10.3125	 76.240387	
10.3458	 76.526486	
10.379	 76.683305	
10.4123	 76.770629	
10.4456	 77.144332	
